<?xml version="1.0" ?><svg data-name="Layer 1" id="Layer_1" viewBox="0 0 60 60" xmlns="http://www.w3.org/2000/svg" xmlns:xlink="http://www.w3.org/1999/xlink"><defs><style>.cls-1,.cls-4,.cls-7{fill:none;}.cls-1{clip-rule:evenodd;}.cls-2{clip-path:url(#clip-path);}.cls-3{fill:#e65f58;}.cls-4,.cls-7{stroke:#314e55;stroke-width:2px;}.cls-4{stroke-miterlimit:10;}.cls-5{clip-path:url(#clip-path-2);}.cls-6{fill:#eaeaea;}.cls-7{stroke-linecap:round;stroke-linejoin:round;}</style><clipPath id="clip-path"><path class="cls-1" d="M53,38.23A8.79,8.79,0,0,1,44.26,47H14.74A8.79,8.79,0,0,1,6,38.23V21.77A8.79,8.79,0,0,1,14.74,13H44.26A8.79,8.79,0,0,1,53,21.77V38.23Z"/></clipPath><clipPath id="clip-path-2"><polygon class="cls-1" points="24 22.39 37.85 30.5 24 38.62 24 22.39"/></clipPath></defs><title/><g class="cls-2"><rect class="cls-3" height="44" width="57" x="1" y="8"/></g><path class="cls-4" d="M53,38.23A8.78,8.78,0,0,1,44.26,47H14.74A8.78,8.78,0,0,1,6,38.23V21.77A8.79,8.79,0,0,1,14.74,13H44.26A8.79,8.79,0,0,1,53,21.77V38.23Z"/><g class="cls-5"><rect class="cls-6" height="26.23" width="23.85" x="19" y="17.39"/></g><polygon class="cls-7" points="24 22.39 37.85 30.5 24 38.62 24 22.39"/></svg>